<mxfile host="app.diagrams.net" agent="Mozilla/5.0 (Windows NT 10.0; Win64; x64) AppleWebKit/537.36 (KHTML, like Gecko) Chrome/132.0.0.0 Safari/537.36" version="26.0.10" pages="3">
  <diagram name="Página-1" id="eZESekyxbqlGzXYW-rs8">
    <mxGraphModel dx="1750" dy="1025" grid="1" gridSize="10" guides="1" tooltips="1" connect="1" arrows="1" fold="1" page="1" pageScale="1" pageWidth="827" pageHeight="1169" background="#FFFFFF" math="0" shadow="0">
      <root>
        <mxCell id="0" />
        <mxCell id="1" parent="0" />
        <mxCell id="AEfKUWo22GQusD14HyYE-8" value="INÍCIO" style="rounded=1;whiteSpace=wrap;html=1;" vertex="1" parent="1">
          <mxGeometry x="354" y="30" width="120" height="60" as="geometry" />
        </mxCell>
        <mxCell id="AEfKUWo22GQusD14HyYE-13" style="edgeStyle=orthogonalEdgeStyle;rounded=0;orthogonalLoop=1;jettySize=auto;html=1;exitX=1;exitY=1;exitDx=0;exitDy=0;" edge="1" parent="1" source="AEfKUWo22GQusD14HyYE-10">
          <mxGeometry relative="1" as="geometry">
            <mxPoint x="471.42857142857133" y="220.09523809523807" as="targetPoint" />
          </mxGeometry>
        </mxCell>
        <mxCell id="AEfKUWo22GQusD14HyYE-17" style="edgeStyle=orthogonalEdgeStyle;rounded=0;orthogonalLoop=1;jettySize=auto;html=1;" edge="1" parent="1" source="AEfKUWo22GQusD14HyYE-10">
          <mxGeometry relative="1" as="geometry">
            <mxPoint x="417.5" y="300" as="targetPoint" />
          </mxGeometry>
        </mxCell>
        <mxCell id="AEfKUWo22GQusD14HyYE-10" value="&lt;font style=&quot;font-size: 13px;&quot;&gt;ENTRADA&amp;nbsp;&lt;/font&gt;&lt;div&gt;&lt;font style=&quot;font-size: 13px;&quot;&gt;(N1, N2, N3)&lt;/font&gt;&lt;/div&gt;" style="html=1;strokeWidth=2;shape=manualInput;whiteSpace=wrap;rounded=1;size=26;arcSize=11;" vertex="1" parent="1">
          <mxGeometry x="355" y="140" width="125" height="80" as="geometry" />
        </mxCell>
        <mxCell id="AEfKUWo22GQusD14HyYE-14" style="edgeStyle=orthogonalEdgeStyle;rounded=0;orthogonalLoop=1;jettySize=auto;html=1;entryX=0.472;entryY=0.111;entryDx=0;entryDy=0;entryPerimeter=0;" edge="1" parent="1" source="AEfKUWo22GQusD14HyYE-8" target="AEfKUWo22GQusD14HyYE-10">
          <mxGeometry relative="1" as="geometry" />
        </mxCell>
        <mxCell id="AEfKUWo22GQusD14HyYE-19" style="edgeStyle=orthogonalEdgeStyle;rounded=0;orthogonalLoop=1;jettySize=auto;html=1;" edge="1" parent="1" source="AEfKUWo22GQusD14HyYE-15">
          <mxGeometry relative="1" as="geometry">
            <mxPoint x="414" y="420" as="targetPoint" />
          </mxGeometry>
        </mxCell>
        <mxCell id="AEfKUWo22GQusD14HyYE-15" value="MEDIA =&amp;nbsp;&lt;div&gt;(N1 + N2 + N3) / 3&lt;/div&gt;" style="rounded=0;whiteSpace=wrap;html=1;" vertex="1" parent="1">
          <mxGeometry x="354" y="310" width="120" height="60" as="geometry" />
        </mxCell>
        <mxCell id="AEfKUWo22GQusD14HyYE-23" style="edgeStyle=orthogonalEdgeStyle;rounded=0;orthogonalLoop=1;jettySize=auto;html=1;" edge="1" parent="1" source="AEfKUWo22GQusD14HyYE-18">
          <mxGeometry relative="1" as="geometry">
            <mxPoint x="590" y="480" as="targetPoint" />
          </mxGeometry>
        </mxCell>
        <mxCell id="AEfKUWo22GQusD14HyYE-24" style="edgeStyle=orthogonalEdgeStyle;rounded=0;orthogonalLoop=1;jettySize=auto;html=1;exitX=0;exitY=0.5;exitDx=0;exitDy=0;entryX=0.5;entryY=0;entryDx=0;entryDy=0;" edge="1" parent="1" source="AEfKUWo22GQusD14HyYE-18" target="AEfKUWo22GQusD14HyYE-29">
          <mxGeometry relative="1" as="geometry">
            <mxPoint x="240" y="520" as="targetPoint" />
          </mxGeometry>
        </mxCell>
        <mxCell id="AEfKUWo22GQusD14HyYE-18" value="MEDIA &amp;gt;= 0&lt;div&gt;e&lt;/div&gt;&lt;div&gt;MEDIA &amp;lt;= 4&lt;/div&gt;" style="rhombus;whiteSpace=wrap;html=1;" vertex="1" parent="1">
          <mxGeometry x="359" y="425" width="108" height="110" as="geometry" />
        </mxCell>
        <mxCell id="AEfKUWo22GQusD14HyYE-25" value="SIM" style="text;html=1;align=center;verticalAlign=middle;whiteSpace=wrap;rounded=0;" vertex="1" parent="1">
          <mxGeometry x="490" y="440" width="60" height="30" as="geometry" />
        </mxCell>
        <mxCell id="AEfKUWo22GQusD14HyYE-26" value="NÃO" style="text;html=1;align=center;verticalAlign=middle;whiteSpace=wrap;rounded=0;" vertex="1" parent="1">
          <mxGeometry x="270" y="440" width="60" height="30" as="geometry" />
        </mxCell>
        <mxCell id="AEfKUWo22GQusD14HyYE-27" value="&quot;VOCÊ FOI REPROVADO SEM&lt;div&gt;POSSÍVEL RECUPERAÇÃO&quot;&lt;/div&gt;" style="shape=document;whiteSpace=wrap;html=1;boundedLbl=1;" vertex="1" parent="1">
          <mxGeometry x="600" y="430" width="120" height="90" as="geometry" />
        </mxCell>
        <mxCell id="AEfKUWo22GQusD14HyYE-33" style="edgeStyle=orthogonalEdgeStyle;rounded=0;orthogonalLoop=1;jettySize=auto;html=1;exitX=0;exitY=0.5;exitDx=0;exitDy=0;" edge="1" parent="1" source="AEfKUWo22GQusD14HyYE-29">
          <mxGeometry relative="1" as="geometry">
            <mxPoint x="140" y="655.3333333333333" as="targetPoint" />
          </mxGeometry>
        </mxCell>
        <mxCell id="AEfKUWo22GQusD14HyYE-34" style="edgeStyle=orthogonalEdgeStyle;rounded=0;orthogonalLoop=1;jettySize=auto;html=1;exitX=1;exitY=0.5;exitDx=0;exitDy=0;" edge="1" parent="1" source="AEfKUWo22GQusD14HyYE-29">
          <mxGeometry relative="1" as="geometry">
            <mxPoint x="380" y="655.3333333333333" as="targetPoint" />
          </mxGeometry>
        </mxCell>
        <mxCell id="AEfKUWo22GQusD14HyYE-29" value="MEDIA &amp;gt; 4&lt;div&gt;e&amp;nbsp;&lt;/div&gt;&lt;div&gt;MEDIA &amp;lt; 7&lt;/div&gt;" style="rhombus;whiteSpace=wrap;html=1;" vertex="1" parent="1">
          <mxGeometry x="210" y="600" width="108" height="110" as="geometry" />
        </mxCell>
        <mxCell id="AEfKUWo22GQusD14HyYE-31" value="&quot;VOCÊ FOI APROVADO&quot;&lt;div&gt;&lt;br&gt;&lt;/div&gt;" style="shape=document;whiteSpace=wrap;html=1;boundedLbl=1;" vertex="1" parent="1">
          <mxGeometry x="390" y="610" width="120" height="90" as="geometry" />
        </mxCell>
        <mxCell id="AEfKUWo22GQusD14HyYE-36" style="edgeStyle=orthogonalEdgeStyle;rounded=0;orthogonalLoop=1;jettySize=auto;html=1;entryX=0;entryY=0.5;entryDx=0;entryDy=0;" edge="1" parent="1" source="AEfKUWo22GQusD14HyYE-32" target="AEfKUWo22GQusD14HyYE-35">
          <mxGeometry relative="1" as="geometry">
            <mxPoint x="90" y="870" as="targetPoint" />
          </mxGeometry>
        </mxCell>
        <mxCell id="AEfKUWo22GQusD14HyYE-32" value="&lt;div&gt;&quot;VOCÊ FOI&lt;/div&gt;&lt;div&gt;REPROVADO COM&lt;/div&gt;&lt;div&gt;POSSÍVEL RECUPERAÇÃO&quot;&lt;/div&gt;" style="shape=document;whiteSpace=wrap;html=1;boundedLbl=1;" vertex="1" parent="1">
          <mxGeometry x="10" y="610" width="120" height="90" as="geometry" />
        </mxCell>
        <mxCell id="AEfKUWo22GQusD14HyYE-35" value="FIM" style="rounded=1;whiteSpace=wrap;html=1;" vertex="1" parent="1">
          <mxGeometry x="100" y="830" width="120" height="60" as="geometry" />
        </mxCell>
        <mxCell id="AEfKUWo22GQusD14HyYE-38" value="" style="endArrow=none;html=1;rounded=0;" edge="1" parent="1">
          <mxGeometry width="50" height="50" relative="1" as="geometry">
            <mxPoint x="670" y="860" as="sourcePoint" />
            <mxPoint x="670" y="500" as="targetPoint" />
          </mxGeometry>
        </mxCell>
        <mxCell id="AEfKUWo22GQusD14HyYE-39" value="" style="endArrow=none;html=1;rounded=0;" edge="1" parent="1">
          <mxGeometry width="50" height="50" relative="1" as="geometry">
            <mxPoint x="670" y="860" as="sourcePoint" />
            <mxPoint x="220" y="860" as="targetPoint" />
            <Array as="points">
              <mxPoint x="485" y="860" />
            </Array>
          </mxGeometry>
        </mxCell>
        <mxCell id="AEfKUWo22GQusD14HyYE-41" value="" style="endArrow=none;html=1;rounded=0;" edge="1" parent="1">
          <mxGeometry width="50" height="50" relative="1" as="geometry">
            <mxPoint x="430" y="860" as="sourcePoint" />
            <mxPoint x="430" y="700" as="targetPoint" />
          </mxGeometry>
        </mxCell>
        <mxCell id="AEfKUWo22GQusD14HyYE-42" value="NÃO" style="text;html=1;align=center;verticalAlign=middle;whiteSpace=wrap;rounded=0;" vertex="1" parent="1">
          <mxGeometry x="318" y="620" width="60" height="30" as="geometry" />
        </mxCell>
        <mxCell id="AEfKUWo22GQusD14HyYE-43" value="SIM" style="text;html=1;align=center;verticalAlign=middle;whiteSpace=wrap;rounded=0;" vertex="1" parent="1">
          <mxGeometry x="150" y="620" width="60" height="30" as="geometry" />
        </mxCell>
      </root>
    </mxGraphModel>
  </diagram>
  <diagram id="S5CtLgX686IxUGsOBuOx" name="Página-2">
    <mxGraphModel dx="1050" dy="615" grid="0" gridSize="10" guides="1" tooltips="1" connect="1" arrows="1" fold="1" page="0" pageScale="1" pageWidth="827" pageHeight="1169" math="0" shadow="0">
      <root>
        <mxCell id="0" />
        <mxCell id="1" parent="0" />
      </root>
    </mxGraphModel>
  </diagram>
  <diagram id="egK0n2Ju312qhFiepzRL" name="Página-3">
    <mxGraphModel dx="1050" dy="615" grid="0" gridSize="10" guides="1" tooltips="1" connect="1" arrows="1" fold="1" page="0" pageScale="1" pageWidth="827" pageHeight="1169" math="0" shadow="0">
      <root>
        <mxCell id="0" />
        <mxCell id="1" parent="0" />
      </root>
    </mxGraphModel>
  </diagram>
</mxfile>
